# xmcd CD database file
#
# Track frame offsets:
#	150
#	31927
#	72465
#	91928
#	134036
#
# Disc length: 2520 seconds
#
# Revision: 0
# Processed by: cddbd v1.5.2PL0 Copyright (c) Steve Scherf et al.
# Submitted via: CDex 1.70beta2
#
DISCID=4309d605
DTITLE=Art Blakey - Modern Jazz Hard Bop Vol. 2 1955 CD 045
DYEAR=2008
DGENRE=Jazz
TTITLE0=Sportin' Crowd
TTITLE1=Like Someone In Love
TTITLE2=Yesterdays
TTITLE3=Avila And Tequila
TTITLE4=I Waited For You
EXTD=YEAR: 2008
EXTT0=
EXTT1=
EXTT2=
EXTT3=
EXTT4=
PLAYORDER=
